<svg width="500" height="106" viewBox="0 0 500 106" fill="none" xmlns="http://www.w3.org/2000/svg">
<path d="M422.007 71.4756H381.918L399.187 45.7847H439.276L422.007 71.4756Z" fill="#880000"/>
<path d="M465.087 46.6484V100.018H499.5V2.96341L465.087 46.6484Z" fill="#880000"/>
<path d="M215.542 82.0086C199.414 82.0086 186.372 68.9354 186.372 52.8235C186.372 36.7113 199.45 23.638 215.542 23.638C224.937 23.638 233.246 28.0902 238.61 34.9447L252.95 14.7693C242.852 5.6533 229.109 0 213.999 0C182.902 0 157.694 23.744 157.694 53C157.694 82.256 182.902 106 213.999 106C231.283 106 246.744 98.6505 257.087 87.0967L241.801 65.5786C237.068 75.2953 227.111 81.9734 215.577 81.9734" fill="#880000"/>
<path d="M296.717 2.96341H264.331L295.517 48.6361H326.942L327.423 47.8829L296.717 2.96341Z" fill="#880000"/>
<path d="M361.299 2.96341L328.499 45.9464L327.985 46.6673L287.28 100.018H322.237L396.255 2.96341H361.299Z" fill="#880000"/>
<path d="M94.7519 2.96341L67.8934 39.4576L41.0349 2.96341H0.5V100.018H28.1359V26.9267L67.8934 78.6296L107.686 26.9267V100.018H135.287V2.96341H94.7519Z" fill="#880000"/>
</svg>
