<svg width="58" height="78" viewBox="0 0 58 78" fill="none" xmlns="http://www.w3.org/2000/svg">
<path d="M29.0248 0L0 77.9995H3.90344L17.5834 41.152H27.4374L28.8085 37.4507H18.9572L29.0254 10.3251L34.1865 24.1619L36.8256 21.0343L29.0248 0Z" fill="#F7F7F7"/>
<path d="M34.8762 26.1065L15.6399 77.9992H19.4725L28.3851 54.1369H38.1813L39.5445 50.4584H29.7304L36.7932 31.4903L41.939 45.1408L44.5994 42.0262L37.5262 22.9802L34.8762 26.1065Z" fill="#F7F7F7"/>
<path fill-rule="evenodd" clip-rule="evenodd" d="M31.2183 77.9992L42.6757 47.0859L45.3317 43.9682L58 78H54.0848C52.5272 73.7757 51.6348 71.3518 50.0772 67.1275H39.0802L37.0623 72.5459L35.0443 77.9992H31.2183ZM40.4592 63.4457L44.5623 52.3655L46.5862 57.8674L48.6446 63.4457H40.4592Z" fill="#BF0603"/>
</svg>
