<svg width="265" height="110" viewBox="0 0 265 110" fill="none" xmlns="http://www.w3.org/2000/svg">
<path d="M29.0248 16L0 93.9995H3.90344L17.5834 57.152H27.4374L28.8085 53.4507H18.9572L29.0254 26.3251L34.1865 40.1619L36.8256 37.0343L29.0248 16Z" fill="#F7F7F7"/>
<path d="M34.8762 42.1065L15.6399 93.9992H19.4725L28.3851 70.1369H38.1813L39.5445 66.4584H29.7304L36.7932 47.4903L41.939 61.1408L44.5994 58.0262L37.5262 38.9802L34.8762 42.1065Z" fill="#F7F7F7"/>
<path fill-rule="evenodd" clip-rule="evenodd" d="M31.2183 93.9992L42.6757 63.0859L45.3317 59.9682L58 94H54.0848C52.5272 89.7757 51.6348 87.3518 50.0772 83.1275H39.0802L37.0623 88.5459L35.0443 93.9992H31.2183ZM40.4592 79.4457L44.5623 68.3655L46.5862 73.8674L48.6446 79.4457H40.4592Z" fill="#BF0603"/>
<path d="M79 16V94" stroke="#F7F7F7" stroke-width="2"/>
<path d="M102.372 55.893C105.602 55.893 107.141 58.116 107.141 60.111C107.141 63.246 105.602 64.5 102.049 64.5H96.026V49.129H105.659V50.649H97.565V55.893H102.372ZM102.334 62.999C104.272 62.999 105.602 62.258 105.602 60.339C105.602 58.781 104.386 57.394 102.296 57.394H97.565V62.999H102.334ZM110.571 50.63V55.513H117.962V57.014L110.571 56.976V63.018H119.349V64.5H109.032V49.129H119.349V50.63H110.571ZM131.617 60.282C131.617 63.379 129.736 64.804 126.164 64.804C120.502 64.804 120.369 61.308 120.369 59.902H121.813C121.813 60.7 122.003 63.322 125.955 63.322C129.413 63.322 130.325 61.669 130.116 59.902C129.964 58.572 128.425 57.432 125.689 57.432V56.007C129.489 56.007 129.717 53.803 129.717 52.986C129.717 51.143 127.95 50.326 126.373 50.326C123.846 50.326 122.725 51.732 122.497 53.309H120.939C121.11 50.991 122.801 48.825 126.145 48.825C129.698 48.825 131.237 50.63 131.237 53.347C131.237 55.988 128.9 56.691 128.9 56.691C128.9 56.691 131.617 57.071 131.617 60.282ZM140.489 48.806C144.878 48.806 147.728 51.865 147.728 56.805C147.728 62.714 143.985 64.804 140.489 64.804C136.081 64.804 133.25 61.669 133.25 56.805C133.25 54.335 133.991 52.264 135.378 50.839C136.67 49.528 138.475 48.806 140.489 48.806ZM140.489 63.246C144.042 63.246 146.151 60.928 146.151 56.805C146.151 52.017 143.263 50.364 140.489 50.364C137.696 50.364 134.808 52.188 134.808 56.805C134.808 61.574 137.696 63.246 140.489 63.246ZM160.092 64.5V50.63H151.352V64.5H149.794V49.129H161.65V64.5H160.092ZM173.196 60.092H166.413L164.836 64.5H163.202L168.94 49.129H170.688L176.445 64.5H174.773L173.196 60.092ZM169.814 50.573L166.945 58.591H172.664L169.814 50.573ZM189.338 58.895H190.934C190.155 63.208 186.925 64.804 183.885 64.804C179.477 64.804 176.646 61.669 176.646 56.805C176.646 54.335 177.387 52.264 178.774 50.839C180.066 49.528 181.871 48.806 183.885 48.806C187.495 48.806 190.041 50.877 190.839 54.354H189.243C188.426 51.447 186.108 50.364 183.885 50.364C181.092 50.364 178.204 52.188 178.204 56.805C178.204 61.574 181.092 63.246 183.885 63.246C186.773 63.246 188.73 61.707 189.338 58.895ZM203.154 64.5V56.995H194.414V64.5H192.856V49.129H194.414V55.513H203.154V49.129H204.712V64.5H203.154ZM213.998 48.806C218.387 48.806 221.237 51.865 221.237 56.805C221.237 62.714 217.494 64.804 213.998 64.804C209.59 64.804 206.759 61.669 206.759 56.805C206.759 54.335 207.5 52.264 208.887 50.839C210.179 49.528 211.984 48.806 213.998 48.806ZM213.998 63.246C217.551 63.246 219.66 60.928 219.66 56.805C219.66 52.017 216.772 50.364 213.998 50.364C211.205 50.364 208.317 52.188 208.317 56.805C208.317 61.574 211.205 63.246 213.998 63.246ZM235.462 58.895H237.058C236.279 63.208 233.049 64.804 230.009 64.804C225.601 64.804 222.77 61.669 222.77 56.805C222.77 54.335 223.511 52.264 224.898 50.839C226.19 49.528 227.995 48.806 230.009 48.806C233.619 48.806 236.165 50.877 236.963 54.354H235.367C234.55 51.447 232.232 50.364 230.009 50.364C227.216 50.364 224.328 52.188 224.328 56.805C224.328 61.574 227.216 63.246 230.009 63.246C232.897 63.246 234.854 61.707 235.462 58.895ZM251.798 50.63H245.357V64.5H243.799V50.63H237.377V49.129H251.798V50.63ZM259.631 55.893C262.652 55.893 264.4 58.116 264.4 60.111C264.4 62.999 262.861 64.5 259.308 64.5H253.285V49.129H254.824V55.893H259.631ZM259.593 62.999C261.531 62.999 262.861 62.258 262.861 60.339C262.861 58.781 261.645 57.394 259.555 57.394H254.824V62.999H259.593Z" fill="#F7F7F7"/>
</svg>
