<svg width="32" height="32" viewBox="0 0 32 32" fill="none" xmlns="http://www.w3.org/2000/svg">
<g clip-path="url(#clip0_1189_1038)">
<path d="M30.9319 1.70703C30.5177 1.35342 30.0179 1.12169 29.4856 1.0365C28.9534 0.951321 28.4085 1.01587 27.9092 1.22329L1.84071 12.0253C1.28338 12.2607 0.80896 12.6645 0.480406 13.1831C0.151852 13.7017 -0.0153087 14.3106 0.00110233 14.929C0.0175134 15.5473 0.21672 16.146 0.572293 16.6455C0.927866 17.1449 1.423 17.5216 1.99199 17.7256L7.26504 19.6083L10.2034 29.5846C10.2437 29.7177 10.3019 29.8444 10.3765 29.9609C10.3881 29.9788 10.4041 29.9907 10.4158 30.0101C10.5015 30.1326 10.605 30.2409 10.7227 30.3311C10.7555 30.3575 10.7895 30.3825 10.8245 30.4058C10.9623 30.4996 11.1149 30.5683 11.2755 30.6088L11.2944 30.6103L11.3031 30.6148C11.4003 30.6348 11.4992 30.6448 11.5984 30.6447L11.6246 30.6402C11.7735 30.6376 11.9212 30.6114 12.0624 30.5625C12.0959 30.5506 12.1235 30.5327 12.1555 30.5178C12.2611 30.4733 12.3612 30.4162 12.4537 30.3476C12.5274 30.2833 12.6011 30.2191 12.6748 30.155L16.6052 25.7013L22.4674 30.3625C22.9834 30.775 23.6186 30.9993 24.2726 31C24.9581 30.9992 25.6224 30.7565 26.1542 30.3126C26.6861 29.8686 27.053 29.2505 27.1935 28.5619L31.94 4.64827C32.0473 4.11027 32.0102 3.55244 31.8327 3.0344C31.6551 2.51635 31.3438 2.05755 30.9319 1.70703ZM12.1744 20.0831C11.973 20.2894 11.8353 20.5522 11.7788 20.8385L11.2755 24.5823L10.1874 19.2126L19.2298 13.7981L12.1744 20.0831ZM24.2508 28.002L17.3224 22.4928C17.0325 22.2632 16.6689 22.1541 16.3042 22.1873C15.9394 22.2205 15.6002 22.3936 15.3542 22.672L14.0945 24.0978L14.5396 21.8777L24.8428 11.3026C25.0873 11.0502 25.2358 10.7164 25.2617 10.3615C25.2875 10.0065 25.189 9.65379 24.9838 9.36684C24.7787 9.07988 24.4804 8.8776 24.1427 8.79645C23.8051 8.7153 23.4503 8.76063 23.1423 8.92427L8.35601 16.8253L2.93751 14.7903L29.0903 4.05405L24.2508 28.002Z" fill="#F5F5F5"/>
</g>
<defs>
<clipPath id="clip0_1189_1038">
<rect width="32" height="32" fill="white"/>
</clipPath>
</defs>
</svg>
