<svg width="32" height="32" viewBox="0 0 32 32" fill="none" xmlns="http://www.w3.org/2000/svg">
<g clip-path="url(#clip0_656_640)">
<path fill-rule="evenodd" clip-rule="evenodd" d="M27.3356 4.6503C24.3277 1.65312 20.3274 0.00168461 16.0656 0C7.28413 0 0.1371 7.11286 0.133586 15.8557C0.132414 18.6504 0.866072 21.3784 2.2602 23.783L0 32L8.44579 29.795C10.7728 31.0582 13.3928 31.7239 16.0592 31.7251H16.0658C24.8463 31.7251 31.994 24.6113 31.9976 15.8684C31.9992 11.6315 30.3436 7.64748 27.3356 4.6503ZM16.0658 29.0469H16.0603C13.6843 29.046 11.3537 28.4107 9.32062 27.2099L8.83704 26.9242L3.82526 28.2327L5.16303 23.3693L4.84813 22.8707C3.5226 20.7723 2.82248 18.3469 2.82352 15.8567C2.82643 8.59 8.7668 2.6781 16.071 2.6781C19.6079 2.67944 22.9327 4.05214 25.4328 6.54329C27.9329 9.03444 29.309 12.3458 29.3077 15.8673C29.3046 23.1346 23.3643 29.0469 16.0658 29.0469ZM23.3292 19.1762C22.9311 18.9779 20.974 18.0194 20.6091 17.8872C20.2442 17.7549 19.9788 17.6888 19.7134 18.0855C19.4481 18.4821 18.6852 19.3746 18.4529 19.639C18.2207 19.9034 17.9885 19.9365 17.5904 19.7382C17.1923 19.5398 15.9097 19.1215 14.3891 17.7717C13.2058 16.7211 12.4068 15.4236 12.1746 15.0269C11.9424 14.6303 12.1499 14.4158 12.3491 14.2183C12.5282 14.0408 12.7472 13.7556 12.9463 13.5242C13.1453 13.2928 13.2116 13.1276 13.3443 12.8632C13.477 12.5987 13.4107 12.3673 13.3111 12.169C13.2116 11.9707 12.4155 10.0205 12.0838 9.22726C11.7607 8.45467 11.4324 8.5592 11.1881 8.54711C10.9561 8.53562 10.6905 8.53316 10.4251 8.53316C10.1598 8.53316 9.7285 8.63233 9.36358 9.02895C8.9987 9.42561 7.97036 10.3842 7.97036 12.3343C7.97036 14.2844 9.39677 16.1684 9.59582 16.4329C9.79483 16.6973 12.4029 20.6993 16.3962 22.4155C17.346 22.8237 18.0875 23.0674 18.6656 23.2501C19.6193 23.5516 20.4871 23.509 21.173 23.4071C21.9378 23.2933 23.5282 22.4486 23.86 21.5231C24.1917 20.5976 24.1917 19.8043 24.0922 19.639C23.9927 19.4738 23.7273 19.3746 23.3292 19.1762Z" fill="#E6E4DA"/>
</g>
<defs>
<clipPath id="clip0_656_640">
<rect width="32" height="32" fill="white"/>
</clipPath>
</defs>
</svg>
