<svg width="29" height="29" viewBox="0 0 29 29" fill="none" xmlns="http://www.w3.org/2000/svg">
<rect width="29" height="29" rx="14.5" fill="#ABABAB" fill-opacity="0.08"/>
<path d="M14.5064 4L7 24.1723H8.00951L11.5474 14.6428H14.0959L14.4505 13.6855H11.9027L14.5066 6.67028L15.8413 10.2488L16.5239 9.43991L14.5064 4Z" fill="#F5F3EB"/>
<path d="M16.0197 10.7517L11.0448 24.1722H12.036L14.341 18.0009H16.8745L17.227 17.0496H14.6889L16.5155 12.144L17.8463 15.6743L18.5343 14.8689L16.7051 9.94315L16.0197 10.7517Z" fill="#F5F3EB"/>
<path fill-rule="evenodd" clip-rule="evenodd" d="M15.0737 24.1722L18.0368 16.1774L18.7237 15.3711L22 24.1724H20.9874C20.5846 23.0799 20.3538 22.453 19.951 21.3606H17.107L16.5851 22.7619L16.0632 24.1722H15.0737ZM17.4636 20.4084L18.5247 17.5428L19.0482 18.9657L19.5805 20.4084H17.4636Z" fill="#BF0603"/>
</svg>
